<mxfile host="app.diagrams.net" modified="2021-11-20T16:21:55.417Z" agent="5.0 (Windows NT 10.0; Win64; x64) AppleWebKit/537.36 (KHTML, like Gecko) Chrome/96.0.4664.45 Safari/537.36" etag="ANBYXh4P-Y_VzlDReWUr" version="15.8.2" type="github">
  <diagram id="MxYo1rLBmlmjhBtS2gf2" name="Page-1">
    <mxGraphModel dx="2302" dy="695" grid="0" gridSize="10" guides="1" tooltips="1" connect="1" arrows="1" fold="1" page="0" pageScale="1" pageWidth="827" pageHeight="1169" math="0" shadow="0">
      <root>
        <mxCell id="0" />
        <mxCell id="1" parent="0" />
        <mxCell id="YUmcADP9y2Q4YEyY4KXE-18" value="" style="shape=table;startSize=0;container=1;collapsible=0;childLayout=tableLayout;sketch=1;hachureGap=4;fontFamily=Architects Daughter;fontSource=https%3A%2F%2Ffonts.googleapis.com%2Fcss%3Ffamily%3DArchitects%2BDaughter;fontSize=20;" vertex="1" parent="1">
          <mxGeometry x="103" y="338" width="151" height="151" as="geometry" />
        </mxCell>
        <mxCell id="YUmcADP9y2Q4YEyY4KXE-19" value="" style="shape=partialRectangle;collapsible=0;dropTarget=0;pointerEvents=0;fillColor=none;top=0;left=0;bottom=0;right=0;points=[[0,0.5],[1,0.5]];portConstraint=eastwest;sketch=1;hachureGap=4;fontFamily=Architects Daughter;fontSource=https%3A%2F%2Ffonts.googleapis.com%2Fcss%3Ffamily%3DArchitects%2BDaughter;fontSize=20;" vertex="1" parent="YUmcADP9y2Q4YEyY4KXE-18">
          <mxGeometry width="151" height="40" as="geometry" />
        </mxCell>
        <mxCell id="YUmcADP9y2Q4YEyY4KXE-20" value="Pahar" style="shape=partialRectangle;html=1;whiteSpace=wrap;connectable=0;overflow=hidden;fillColor=none;top=0;left=0;bottom=0;right=0;pointerEvents=1;sketch=1;hachureGap=4;fontFamily=Architects Daughter;fontSource=https%3A%2F%2Ffonts.googleapis.com%2Fcss%3Ffamily%3DArchitects%2BDaughter;fontSize=20;" vertex="1" parent="YUmcADP9y2Q4YEyY4KXE-19">
          <mxGeometry width="151" height="40" as="geometry">
            <mxRectangle width="151" height="40" as="alternateBounds" />
          </mxGeometry>
        </mxCell>
        <mxCell id="YUmcADP9y2Q4YEyY4KXE-21" value="" style="shape=partialRectangle;collapsible=0;dropTarget=0;pointerEvents=0;fillColor=none;top=0;left=0;bottom=0;right=0;points=[[0,0.5],[1,0.5]];portConstraint=eastwest;sketch=1;hachureGap=4;fontFamily=Architects Daughter;fontSource=https%3A%2F%2Ffonts.googleapis.com%2Fcss%3Ffamily%3DArchitects%2BDaughter;fontSize=20;" vertex="1" parent="YUmcADP9y2Q4YEyY4KXE-18">
          <mxGeometry y="40" width="151" height="111" as="geometry" />
        </mxCell>
        <mxCell id="YUmcADP9y2Q4YEyY4KXE-22" value="" style="shape=partialRectangle;html=1;whiteSpace=wrap;connectable=0;overflow=hidden;fillColor=none;top=0;left=0;bottom=0;right=0;pointerEvents=1;sketch=1;hachureGap=4;fontFamily=Architects Daughter;fontSource=https%3A%2F%2Ffonts.googleapis.com%2Fcss%3Ffamily%3DArchitects%2BDaughter;fontSize=20;" vertex="1" parent="YUmcADP9y2Q4YEyY4KXE-21">
          <mxGeometry width="151" height="111" as="geometry">
            <mxRectangle width="151" height="111" as="alternateBounds" />
          </mxGeometry>
        </mxCell>
        <mxCell id="YUmcADP9y2Q4YEyY4KXE-23" value="" style="shape=table;startSize=0;container=1;collapsible=0;childLayout=tableLayout;sketch=1;hachureGap=4;fontFamily=Architects Daughter;fontSource=https%3A%2F%2Ffonts.googleapis.com%2Fcss%3Ffamily%3DArchitects%2BDaughter;fontSize=20;" vertex="1" parent="1">
          <mxGeometry x="-202" y="82" width="199" height="200" as="geometry" />
        </mxCell>
        <mxCell id="YUmcADP9y2Q4YEyY4KXE-24" value="" style="shape=partialRectangle;collapsible=0;dropTarget=0;pointerEvents=0;fillColor=none;top=0;left=0;bottom=0;right=0;points=[[0,0.5],[1,0.5]];portConstraint=eastwest;sketch=1;hachureGap=4;fontFamily=Architects Daughter;fontSource=https%3A%2F%2Ffonts.googleapis.com%2Fcss%3Ffamily%3DArchitects%2BDaughter;fontSize=20;" vertex="1" parent="YUmcADP9y2Q4YEyY4KXE-23">
          <mxGeometry width="199" height="54" as="geometry" />
        </mxCell>
        <mxCell id="YUmcADP9y2Q4YEyY4KXE-25" value="Comanda" style="shape=partialRectangle;html=1;whiteSpace=wrap;connectable=0;overflow=hidden;fillColor=none;top=0;left=0;bottom=0;right=0;pointerEvents=1;sketch=1;hachureGap=4;fontFamily=Architects Daughter;fontSource=https%3A%2F%2Ffonts.googleapis.com%2Fcss%3Ffamily%3DArchitects%2BDaughter;fontSize=20;" vertex="1" parent="YUmcADP9y2Q4YEyY4KXE-24">
          <mxGeometry width="199" height="54" as="geometry">
            <mxRectangle width="199" height="54" as="alternateBounds" />
          </mxGeometry>
        </mxCell>
        <mxCell id="YUmcADP9y2Q4YEyY4KXE-26" value="" style="shape=partialRectangle;collapsible=0;dropTarget=0;pointerEvents=0;fillColor=none;top=0;left=0;bottom=0;right=0;points=[[0,0.5],[1,0.5]];portConstraint=eastwest;sketch=1;hachureGap=4;fontFamily=Architects Daughter;fontSource=https%3A%2F%2Ffonts.googleapis.com%2Fcss%3Ffamily%3DArchitects%2BDaughter;fontSize=20;" vertex="1" parent="YUmcADP9y2Q4YEyY4KXE-23">
          <mxGeometry y="54" width="199" height="146" as="geometry" />
        </mxCell>
        <mxCell id="YUmcADP9y2Q4YEyY4KXE-27" value="" style="shape=partialRectangle;html=1;whiteSpace=wrap;connectable=0;overflow=hidden;fillColor=none;top=0;left=0;bottom=0;right=0;pointerEvents=1;sketch=1;hachureGap=4;fontFamily=Architects Daughter;fontSource=https%3A%2F%2Ffonts.googleapis.com%2Fcss%3Ffamily%3DArchitects%2BDaughter;fontSize=20;" vertex="1" parent="YUmcADP9y2Q4YEyY4KXE-26">
          <mxGeometry width="199" height="146" as="geometry">
            <mxRectangle width="199" height="146" as="alternateBounds" />
          </mxGeometry>
        </mxCell>
        <mxCell id="YUmcADP9y2Q4YEyY4KXE-28" value="" style="shape=table;startSize=0;container=1;collapsible=0;childLayout=tableLayout;sketch=1;hachureGap=4;fontFamily=Architects Daughter;fontSource=https%3A%2F%2Ffonts.googleapis.com%2Fcss%3Ffamily%3DArchitects%2BDaughter;fontSize=20;" vertex="1" parent="1">
          <mxGeometry x="648" y="431" width="121" height="133" as="geometry" />
        </mxCell>
        <mxCell id="YUmcADP9y2Q4YEyY4KXE-29" value="" style="shape=partialRectangle;collapsible=0;dropTarget=0;pointerEvents=0;fillColor=none;top=0;left=0;bottom=0;right=0;points=[[0,0.5],[1,0.5]];portConstraint=eastwest;sketch=1;hachureGap=4;fontFamily=Architects Daughter;fontSource=https%3A%2F%2Ffonts.googleapis.com%2Fcss%3Ffamily%3DArchitects%2BDaughter;fontSize=20;" vertex="1" parent="YUmcADP9y2Q4YEyY4KXE-28">
          <mxGeometry width="121" height="37" as="geometry" />
        </mxCell>
        <mxCell id="YUmcADP9y2Q4YEyY4KXE-30" value="Lapte" style="shape=partialRectangle;html=1;whiteSpace=wrap;connectable=0;overflow=hidden;fillColor=none;top=0;left=0;bottom=0;right=0;pointerEvents=1;sketch=1;hachureGap=4;fontFamily=Architects Daughter;fontSource=https%3A%2F%2Ffonts.googleapis.com%2Fcss%3Ffamily%3DArchitects%2BDaughter;fontSize=20;" vertex="1" parent="YUmcADP9y2Q4YEyY4KXE-29">
          <mxGeometry width="121" height="37" as="geometry">
            <mxRectangle width="121" height="37" as="alternateBounds" />
          </mxGeometry>
        </mxCell>
        <mxCell id="YUmcADP9y2Q4YEyY4KXE-31" value="" style="shape=partialRectangle;collapsible=0;dropTarget=0;pointerEvents=0;fillColor=none;top=0;left=0;bottom=0;right=0;points=[[0,0.5],[1,0.5]];portConstraint=eastwest;sketch=1;hachureGap=4;fontFamily=Architects Daughter;fontSource=https%3A%2F%2Ffonts.googleapis.com%2Fcss%3Ffamily%3DArchitects%2BDaughter;fontSize=20;" vertex="1" parent="YUmcADP9y2Q4YEyY4KXE-28">
          <mxGeometry y="37" width="121" height="96" as="geometry" />
        </mxCell>
        <mxCell id="YUmcADP9y2Q4YEyY4KXE-32" value="" style="shape=partialRectangle;html=1;whiteSpace=wrap;connectable=0;overflow=hidden;fillColor=none;top=0;left=0;bottom=0;right=0;pointerEvents=1;sketch=1;hachureGap=4;fontFamily=Architects Daughter;fontSource=https%3A%2F%2Ffonts.googleapis.com%2Fcss%3Ffamily%3DArchitects%2BDaughter;fontSize=20;" vertex="1" parent="YUmcADP9y2Q4YEyY4KXE-31">
          <mxGeometry width="121" height="96" as="geometry">
            <mxRectangle width="121" height="96" as="alternateBounds" />
          </mxGeometry>
        </mxCell>
        <mxCell id="YUmcADP9y2Q4YEyY4KXE-33" value="" style="shape=table;startSize=0;container=1;collapsible=0;childLayout=tableLayout;sketch=1;hachureGap=4;fontFamily=Architects Daughter;fontSource=https%3A%2F%2Ffonts.googleapis.com%2Fcss%3Ffamily%3DArchitects%2BDaughter;fontSize=20;" vertex="1" parent="1">
          <mxGeometry x="329" y="99" width="152" height="131.5" as="geometry" />
        </mxCell>
        <mxCell id="YUmcADP9y2Q4YEyY4KXE-34" value="" style="shape=partialRectangle;collapsible=0;dropTarget=0;pointerEvents=0;fillColor=none;top=0;left=0;bottom=0;right=0;points=[[0,0.5],[1,0.5]];portConstraint=eastwest;sketch=1;hachureGap=4;fontFamily=Architects Daughter;fontSource=https%3A%2F%2Ffonts.googleapis.com%2Fcss%3Ffamily%3DArchitects%2BDaughter;fontSize=20;" vertex="1" parent="YUmcADP9y2Q4YEyY4KXE-33">
          <mxGeometry width="152" height="36" as="geometry" />
        </mxCell>
        <mxCell id="YUmcADP9y2Q4YEyY4KXE-35" value="Aditiv" style="shape=partialRectangle;html=1;whiteSpace=wrap;connectable=0;overflow=hidden;fillColor=none;top=0;left=0;bottom=0;right=0;pointerEvents=1;sketch=1;hachureGap=4;fontFamily=Architects Daughter;fontSource=https%3A%2F%2Ffonts.googleapis.com%2Fcss%3Ffamily%3DArchitects%2BDaughter;fontSize=20;" vertex="1" parent="YUmcADP9y2Q4YEyY4KXE-34">
          <mxGeometry width="152" height="36" as="geometry">
            <mxRectangle width="152" height="36" as="alternateBounds" />
          </mxGeometry>
        </mxCell>
        <mxCell id="YUmcADP9y2Q4YEyY4KXE-36" value="" style="shape=partialRectangle;collapsible=0;dropTarget=0;pointerEvents=0;fillColor=none;top=0;left=0;bottom=0;right=0;points=[[0,0.5],[1,0.5]];portConstraint=eastwest;sketch=1;hachureGap=4;fontFamily=Architects Daughter;fontSource=https%3A%2F%2Ffonts.googleapis.com%2Fcss%3Ffamily%3DArchitects%2BDaughter;fontSize=20;" vertex="1" parent="YUmcADP9y2Q4YEyY4KXE-33">
          <mxGeometry y="36" width="152" height="96" as="geometry" />
        </mxCell>
        <mxCell id="YUmcADP9y2Q4YEyY4KXE-37" value="" style="shape=partialRectangle;html=1;whiteSpace=wrap;connectable=0;overflow=hidden;fillColor=none;top=0;left=0;bottom=0;right=0;pointerEvents=1;sketch=1;hachureGap=4;fontFamily=Architects Daughter;fontSource=https%3A%2F%2Ffonts.googleapis.com%2Fcss%3Ffamily%3DArchitects%2BDaughter;fontSize=20;" vertex="1" parent="YUmcADP9y2Q4YEyY4KXE-36">
          <mxGeometry width="152" height="96" as="geometry">
            <mxRectangle width="152" height="96" as="alternateBounds" />
          </mxGeometry>
        </mxCell>
        <mxCell id="YUmcADP9y2Q4YEyY4KXE-38" value="" style="shape=table;startSize=0;container=1;collapsible=0;childLayout=tableLayout;sketch=1;hachureGap=4;fontFamily=Architects Daughter;fontSource=https%3A%2F%2Ffonts.googleapis.com%2Fcss%3Ffamily%3DArchitects%2BDaughter;fontSize=20;" vertex="1" parent="1">
          <mxGeometry x="635" y="59" width="118" height="135" as="geometry" />
        </mxCell>
        <mxCell id="YUmcADP9y2Q4YEyY4KXE-39" value="" style="shape=partialRectangle;collapsible=0;dropTarget=0;pointerEvents=0;fillColor=none;top=0;left=0;bottom=0;right=0;points=[[0,0.5],[1,0.5]];portConstraint=eastwest;sketch=1;hachureGap=4;fontFamily=Architects Daughter;fontSource=https%3A%2F%2Ffonts.googleapis.com%2Fcss%3Ffamily%3DArchitects%2BDaughter;fontSize=20;" vertex="1" parent="YUmcADP9y2Q4YEyY4KXE-38">
          <mxGeometry width="118" height="36" as="geometry" />
        </mxCell>
        <mxCell id="YUmcADP9y2Q4YEyY4KXE-40" value="Ceai" style="shape=partialRectangle;html=1;whiteSpace=wrap;connectable=0;overflow=hidden;fillColor=none;top=0;left=0;bottom=0;right=0;pointerEvents=1;sketch=1;hachureGap=4;fontFamily=Architects Daughter;fontSource=https%3A%2F%2Ffonts.googleapis.com%2Fcss%3Ffamily%3DArchitects%2BDaughter;fontSize=20;" vertex="1" parent="YUmcADP9y2Q4YEyY4KXE-39">
          <mxGeometry width="118" height="36" as="geometry">
            <mxRectangle width="118" height="36" as="alternateBounds" />
          </mxGeometry>
        </mxCell>
        <mxCell id="YUmcADP9y2Q4YEyY4KXE-41" value="" style="shape=partialRectangle;collapsible=0;dropTarget=0;pointerEvents=0;fillColor=none;top=0;left=0;bottom=0;right=0;points=[[0,0.5],[1,0.5]];portConstraint=eastwest;sketch=1;hachureGap=4;fontFamily=Architects Daughter;fontSource=https%3A%2F%2Ffonts.googleapis.com%2Fcss%3Ffamily%3DArchitects%2BDaughter;fontSize=20;" vertex="1" parent="YUmcADP9y2Q4YEyY4KXE-38">
          <mxGeometry y="36" width="118" height="99" as="geometry" />
        </mxCell>
        <mxCell id="YUmcADP9y2Q4YEyY4KXE-42" value="" style="shape=partialRectangle;html=1;whiteSpace=wrap;connectable=0;overflow=hidden;fillColor=none;top=0;left=0;bottom=0;right=0;pointerEvents=1;sketch=1;hachureGap=4;fontFamily=Architects Daughter;fontSource=https%3A%2F%2Ffonts.googleapis.com%2Fcss%3Ffamily%3DArchitects%2BDaughter;fontSize=20;" vertex="1" parent="YUmcADP9y2Q4YEyY4KXE-41">
          <mxGeometry width="118" height="99" as="geometry">
            <mxRectangle width="118" height="99" as="alternateBounds" />
          </mxGeometry>
        </mxCell>
        <mxCell id="YUmcADP9y2Q4YEyY4KXE-43" value="" style="shape=table;startSize=0;container=1;collapsible=0;childLayout=tableLayout;sketch=1;hachureGap=4;fontFamily=Architects Daughter;fontSource=https%3A%2F%2Ffonts.googleapis.com%2Fcss%3Ffamily%3DArchitects%2BDaughter;fontSize=20;" vertex="1" parent="1">
          <mxGeometry x="639" y="250" width="121" height="136" as="geometry" />
        </mxCell>
        <mxCell id="YUmcADP9y2Q4YEyY4KXE-44" value="" style="shape=partialRectangle;collapsible=0;dropTarget=0;pointerEvents=0;fillColor=none;top=0;left=0;bottom=0;right=0;points=[[0,0.5],[1,0.5]];portConstraint=eastwest;sketch=1;hachureGap=4;fontFamily=Architects Daughter;fontSource=https%3A%2F%2Ffonts.googleapis.com%2Fcss%3Ffamily%3DArchitects%2BDaughter;fontSize=20;" vertex="1" parent="YUmcADP9y2Q4YEyY4KXE-43">
          <mxGeometry width="121" height="37" as="geometry" />
        </mxCell>
        <mxCell id="YUmcADP9y2Q4YEyY4KXE-45" value="Cafea" style="shape=partialRectangle;html=1;whiteSpace=wrap;connectable=0;overflow=hidden;fillColor=none;top=0;left=0;bottom=0;right=0;pointerEvents=1;sketch=1;hachureGap=4;fontFamily=Architects Daughter;fontSource=https%3A%2F%2Ffonts.googleapis.com%2Fcss%3Ffamily%3DArchitects%2BDaughter;fontSize=20;" vertex="1" parent="YUmcADP9y2Q4YEyY4KXE-44">
          <mxGeometry width="121" height="37" as="geometry">
            <mxRectangle width="121" height="37" as="alternateBounds" />
          </mxGeometry>
        </mxCell>
        <mxCell id="YUmcADP9y2Q4YEyY4KXE-46" value="" style="shape=partialRectangle;collapsible=0;dropTarget=0;pointerEvents=0;fillColor=none;top=0;left=0;bottom=0;right=0;points=[[0,0.5],[1,0.5]];portConstraint=eastwest;sketch=1;hachureGap=4;fontFamily=Architects Daughter;fontSource=https%3A%2F%2Ffonts.googleapis.com%2Fcss%3Ffamily%3DArchitects%2BDaughter;fontSize=20;" vertex="1" parent="YUmcADP9y2Q4YEyY4KXE-43">
          <mxGeometry y="37" width="121" height="99" as="geometry" />
        </mxCell>
        <mxCell id="YUmcADP9y2Q4YEyY4KXE-47" value="" style="shape=partialRectangle;html=1;whiteSpace=wrap;connectable=0;overflow=hidden;fillColor=none;top=0;left=0;bottom=0;right=0;pointerEvents=1;sketch=1;hachureGap=4;fontFamily=Architects Daughter;fontSource=https%3A%2F%2Ffonts.googleapis.com%2Fcss%3Ffamily%3DArchitects%2BDaughter;fontSize=20;" vertex="1" parent="YUmcADP9y2Q4YEyY4KXE-46">
          <mxGeometry width="121" height="99" as="geometry">
            <mxRectangle width="121" height="99" as="alternateBounds" />
          </mxGeometry>
        </mxCell>
        <mxCell id="YUmcADP9y2Q4YEyY4KXE-48" value="" style="shape=table;startSize=0;container=1;collapsible=0;childLayout=tableLayout;sketch=1;hachureGap=4;fontFamily=Architects Daughter;fontSource=https%3A%2F%2Ffonts.googleapis.com%2Fcss%3Ffamily%3DArchitects%2BDaughter;fontSize=20;" vertex="1" parent="1">
          <mxGeometry x="-466" y="82" width="199" height="198" as="geometry" />
        </mxCell>
        <mxCell id="YUmcADP9y2Q4YEyY4KXE-49" value="" style="shape=partialRectangle;collapsible=0;dropTarget=0;pointerEvents=0;fillColor=none;top=0;left=0;bottom=0;right=0;points=[[0,0.5],[1,0.5]];portConstraint=eastwest;sketch=1;hachureGap=4;fontFamily=Architects Daughter;fontSource=https%3A%2F%2Ffonts.googleapis.com%2Fcss%3Ffamily%3DArchitects%2BDaughter;fontSize=20;" vertex="1" parent="YUmcADP9y2Q4YEyY4KXE-48">
          <mxGeometry width="199" height="52" as="geometry" />
        </mxCell>
        <mxCell id="YUmcADP9y2Q4YEyY4KXE-50" value="User" style="shape=partialRectangle;html=1;whiteSpace=wrap;connectable=0;overflow=hidden;fillColor=none;top=0;left=0;bottom=0;right=0;pointerEvents=1;sketch=1;hachureGap=4;fontFamily=Architects Daughter;fontSource=https%3A%2F%2Ffonts.googleapis.com%2Fcss%3Ffamily%3DArchitects%2BDaughter;fontSize=20;" vertex="1" parent="YUmcADP9y2Q4YEyY4KXE-49">
          <mxGeometry width="199" height="52" as="geometry">
            <mxRectangle width="199" height="52" as="alternateBounds" />
          </mxGeometry>
        </mxCell>
        <mxCell id="YUmcADP9y2Q4YEyY4KXE-51" value="" style="shape=partialRectangle;collapsible=0;dropTarget=0;pointerEvents=0;fillColor=none;top=0;left=0;bottom=0;right=0;points=[[0,0.5],[1,0.5]];portConstraint=eastwest;sketch=1;hachureGap=4;fontFamily=Architects Daughter;fontSource=https%3A%2F%2Ffonts.googleapis.com%2Fcss%3Ffamily%3DArchitects%2BDaughter;fontSize=20;" vertex="1" parent="YUmcADP9y2Q4YEyY4KXE-48">
          <mxGeometry y="52" width="199" height="146" as="geometry" />
        </mxCell>
        <mxCell id="YUmcADP9y2Q4YEyY4KXE-52" value="" style="shape=partialRectangle;html=1;whiteSpace=wrap;connectable=0;overflow=hidden;fillColor=none;top=0;left=0;bottom=0;right=0;pointerEvents=1;sketch=1;hachureGap=4;fontFamily=Architects Daughter;fontSource=https%3A%2F%2Ffonts.googleapis.com%2Fcss%3Ffamily%3DArchitects%2BDaughter;fontSize=20;" vertex="1" parent="YUmcADP9y2Q4YEyY4KXE-51">
          <mxGeometry width="199" height="146" as="geometry">
            <mxRectangle width="199" height="146" as="alternateBounds" />
          </mxGeometry>
        </mxCell>
        <mxCell id="YUmcADP9y2Q4YEyY4KXE-75" value="" style="edgeStyle=none;orthogonalLoop=1;jettySize=auto;html=1;rounded=0;sketch=1;hachureGap=4;fontFamily=Architects Daughter;fontSource=https%3A%2F%2Ffonts.googleapis.com%2Fcss%3Ffamily%3DArchitects%2BDaughter;fontSize=16;endArrow=open;startSize=14;endSize=14;sourcePerimeterSpacing=8;targetPerimeterSpacing=8;curved=1;entryX=-0.01;entryY=0.37;entryDx=0;entryDy=0;entryPerimeter=0;" edge="1" parent="1" target="YUmcADP9y2Q4YEyY4KXE-26">
          <mxGeometry width="120" relative="1" as="geometry">
            <mxPoint x="-265" y="140" as="sourcePoint" />
            <mxPoint x="-145" y="140" as="targetPoint" />
            <Array as="points" />
          </mxGeometry>
        </mxCell>
        <mxCell id="YUmcADP9y2Q4YEyY4KXE-78" value="M" style="text;strokeColor=none;fillColor=none;html=1;align=center;verticalAlign=middle;whiteSpace=wrap;rounded=0;sketch=1;hachureGap=4;fontFamily=Architects Daughter;fontSource=https%3A%2F%2Ffonts.googleapis.com%2Fcss%3Ffamily%3DArchitects%2BDaughter;fontSize=20;" vertex="1" parent="1">
          <mxGeometry x="-235" y="143.5" width="33" height="30" as="geometry" />
        </mxCell>
        <mxCell id="YUmcADP9y2Q4YEyY4KXE-79" value="1" style="text;strokeColor=none;fillColor=none;html=1;align=center;verticalAlign=middle;whiteSpace=wrap;rounded=0;sketch=1;hachureGap=4;fontFamily=Architects Daughter;fontSource=https%3A%2F%2Ffonts.googleapis.com%2Fcss%3Ffamily%3DArchitects%2BDaughter;fontSize=20;" vertex="1" parent="1">
          <mxGeometry x="-273" y="110.5" width="22" height="26" as="geometry" />
        </mxCell>
        <mxCell id="YUmcADP9y2Q4YEyY4KXE-86" value="" style="shape=table;startSize=0;container=1;collapsible=0;childLayout=tableLayout;sketch=1;hachureGap=4;fontFamily=Architects Daughter;fontSource=https%3A%2F%2Ffonts.googleapis.com%2Fcss%3Ffamily%3DArchitects%2BDaughter;fontSize=20;" vertex="1" parent="1">
          <mxGeometry x="62" y="70" width="198" height="197" as="geometry" />
        </mxCell>
        <mxCell id="YUmcADP9y2Q4YEyY4KXE-87" value="" style="shape=partialRectangle;collapsible=0;dropTarget=0;pointerEvents=0;fillColor=none;top=0;left=0;bottom=0;right=0;points=[[0,0.5],[1,0.5]];portConstraint=eastwest;sketch=1;hachureGap=4;fontFamily=Architects Daughter;fontSource=https%3A%2F%2Ffonts.googleapis.com%2Fcss%3Ffamily%3DArchitects%2BDaughter;fontSize=20;" vertex="1" parent="YUmcADP9y2Q4YEyY4KXE-86">
          <mxGeometry width="198" height="53" as="geometry" />
        </mxCell>
        <mxCell id="YUmcADP9y2Q4YEyY4KXE-88" value="Bautura" style="shape=partialRectangle;html=1;whiteSpace=wrap;connectable=0;overflow=hidden;fillColor=none;top=0;left=0;bottom=0;right=0;pointerEvents=1;sketch=1;hachureGap=4;fontFamily=Architects Daughter;fontSource=https%3A%2F%2Ffonts.googleapis.com%2Fcss%3Ffamily%3DArchitects%2BDaughter;fontSize=20;" vertex="1" parent="YUmcADP9y2Q4YEyY4KXE-87">
          <mxGeometry width="198" height="53" as="geometry">
            <mxRectangle width="198" height="53" as="alternateBounds" />
          </mxGeometry>
        </mxCell>
        <mxCell id="YUmcADP9y2Q4YEyY4KXE-89" value="" style="shape=partialRectangle;collapsible=0;dropTarget=0;pointerEvents=0;fillColor=none;top=0;left=0;bottom=0;right=0;points=[[0,0.5],[1,0.5]];portConstraint=eastwest;sketch=1;hachureGap=4;fontFamily=Architects Daughter;fontSource=https%3A%2F%2Ffonts.googleapis.com%2Fcss%3Ffamily%3DArchitects%2BDaughter;fontSize=20;" vertex="1" parent="YUmcADP9y2Q4YEyY4KXE-86">
          <mxGeometry y="53" width="198" height="144" as="geometry" />
        </mxCell>
        <mxCell id="YUmcADP9y2Q4YEyY4KXE-90" value="" style="shape=partialRectangle;html=1;whiteSpace=wrap;connectable=0;overflow=hidden;fillColor=none;top=0;left=0;bottom=0;right=0;pointerEvents=1;sketch=1;hachureGap=4;fontFamily=Architects Daughter;fontSource=https%3A%2F%2Ffonts.googleapis.com%2Fcss%3Ffamily%3DArchitects%2BDaughter;fontSize=20;" vertex="1" parent="YUmcADP9y2Q4YEyY4KXE-89">
          <mxGeometry width="198" height="144" as="geometry">
            <mxRectangle width="198" height="144" as="alternateBounds" />
          </mxGeometry>
        </mxCell>
        <mxCell id="YUmcADP9y2Q4YEyY4KXE-91" value="" style="shape=table;startSize=0;container=1;collapsible=0;childLayout=tableLayout;sketch=1;hachureGap=4;fontFamily=Architects Daughter;fontSource=https%3A%2F%2Ffonts.googleapis.com%2Fcss%3Ffamily%3DArchitects%2BDaughter;fontSize=20;" vertex="1" parent="1">
          <mxGeometry x="318" y="340.63" width="140" height="148.37" as="geometry" />
        </mxCell>
        <mxCell id="YUmcADP9y2Q4YEyY4KXE-92" value="" style="shape=partialRectangle;collapsible=0;dropTarget=0;pointerEvents=0;fillColor=none;top=0;left=0;bottom=0;right=0;points=[[0,0.5],[1,0.5]];portConstraint=eastwest;sketch=1;hachureGap=4;fontFamily=Architects Daughter;fontSource=https%3A%2F%2Ffonts.googleapis.com%2Fcss%3Ffamily%3DArchitects%2BDaughter;fontSize=20;" vertex="1" parent="YUmcADP9y2Q4YEyY4KXE-91">
          <mxGeometry width="140" height="56" as="geometry" />
        </mxCell>
        <mxCell id="YUmcADP9y2Q4YEyY4KXE-93" value="Componenta principala" style="shape=partialRectangle;html=1;whiteSpace=wrap;connectable=0;overflow=hidden;fillColor=none;top=0;left=0;bottom=0;right=0;pointerEvents=1;sketch=1;hachureGap=4;fontFamily=Architects Daughter;fontSource=https%3A%2F%2Ffonts.googleapis.com%2Fcss%3Ffamily%3DArchitects%2BDaughter;fontSize=20;" vertex="1" parent="YUmcADP9y2Q4YEyY4KXE-92">
          <mxGeometry width="140" height="56" as="geometry">
            <mxRectangle width="140" height="56" as="alternateBounds" />
          </mxGeometry>
        </mxCell>
        <mxCell id="YUmcADP9y2Q4YEyY4KXE-94" value="" style="shape=partialRectangle;collapsible=0;dropTarget=0;pointerEvents=0;fillColor=none;top=0;left=0;bottom=0;right=0;points=[[0,0.5],[1,0.5]];portConstraint=eastwest;sketch=1;hachureGap=4;fontFamily=Architects Daughter;fontSource=https%3A%2F%2Ffonts.googleapis.com%2Fcss%3Ffamily%3DArchitects%2BDaughter;fontSize=20;" vertex="1" parent="YUmcADP9y2Q4YEyY4KXE-91">
          <mxGeometry y="56" width="140" height="92" as="geometry" />
        </mxCell>
        <mxCell id="YUmcADP9y2Q4YEyY4KXE-95" value="" style="shape=partialRectangle;html=1;whiteSpace=wrap;connectable=0;overflow=hidden;fillColor=none;top=0;left=0;bottom=0;right=0;pointerEvents=1;sketch=1;hachureGap=4;fontFamily=Architects Daughter;fontSource=https%3A%2F%2Ffonts.googleapis.com%2Fcss%3Ffamily%3DArchitects%2BDaughter;fontSize=20;" vertex="1" parent="YUmcADP9y2Q4YEyY4KXE-94">
          <mxGeometry width="140" height="92" as="geometry">
            <mxRectangle width="140" height="92" as="alternateBounds" />
          </mxGeometry>
        </mxCell>
        <mxCell id="YUmcADP9y2Q4YEyY4KXE-97" value="" style="edgeStyle=none;orthogonalLoop=1;jettySize=auto;html=1;rounded=0;sketch=1;hachureGap=4;fontFamily=Architects Daughter;fontSource=https%3A%2F%2Ffonts.googleapis.com%2Fcss%3Ffamily%3DArchitects%2BDaughter;fontSize=16;endArrow=open;startSize=14;endSize=14;sourcePerimeterSpacing=8;targetPerimeterSpacing=8;curved=1;entryX=1.025;entryY=0.425;entryDx=0;entryDy=0;entryPerimeter=0;" edge="1" parent="1" target="YUmcADP9y2Q4YEyY4KXE-26">
          <mxGeometry width="120" relative="1" as="geometry">
            <mxPoint x="62" y="148" as="sourcePoint" />
            <mxPoint x="21" y="148" as="targetPoint" />
            <Array as="points" />
          </mxGeometry>
        </mxCell>
        <mxCell id="YUmcADP9y2Q4YEyY4KXE-99" value="M" style="text;strokeColor=none;fillColor=none;html=1;align=center;verticalAlign=middle;whiteSpace=wrap;rounded=0;sketch=1;hachureGap=4;fontFamily=Architects Daughter;fontSource=https%3A%2F%2Ffonts.googleapis.com%2Fcss%3Ffamily%3DArchitects%2BDaughter;fontSize=20;" vertex="1" parent="1">
          <mxGeometry x="-1" y="156.25" width="17" height="24.5" as="geometry" />
        </mxCell>
        <mxCell id="YUmcADP9y2Q4YEyY4KXE-103" value="1" style="text;strokeColor=none;fillColor=none;html=1;align=center;verticalAlign=middle;whiteSpace=wrap;rounded=0;sketch=1;hachureGap=4;fontFamily=Architects Daughter;fontSource=https%3A%2F%2Ffonts.googleapis.com%2Fcss%3Ffamily%3DArchitects%2BDaughter;fontSize=20;" vertex="1" parent="1">
          <mxGeometry x="40" y="117.5" width="22" height="26" as="geometry" />
        </mxCell>
        <mxCell id="YUmcADP9y2Q4YEyY4KXE-106" value="" style="edgeStyle=none;orthogonalLoop=1;jettySize=auto;html=1;rounded=0;sketch=1;hachureGap=4;fontFamily=Architects Daughter;fontSource=https%3A%2F%2Ffonts.googleapis.com%2Fcss%3Ffamily%3DArchitects%2BDaughter;fontSize=16;endArrow=open;startSize=14;endSize=14;sourcePerimeterSpacing=8;targetPerimeterSpacing=8;curved=1;exitX=0.495;exitY=1.028;exitDx=0;exitDy=0;exitPerimeter=0;entryX=0.391;entryY=-0.03;entryDx=0;entryDy=0;entryPerimeter=0;" edge="1" parent="1" source="YUmcADP9y2Q4YEyY4KXE-89" target="YUmcADP9y2Q4YEyY4KXE-19">
          <mxGeometry width="120" relative="1" as="geometry">
            <mxPoint x="124" y="334" as="sourcePoint" />
            <mxPoint x="244" y="334" as="targetPoint" />
            <Array as="points" />
          </mxGeometry>
        </mxCell>
        <mxCell id="YUmcADP9y2Q4YEyY4KXE-107" value="" style="edgeStyle=none;orthogonalLoop=1;jettySize=auto;html=1;rounded=0;sketch=1;hachureGap=4;fontFamily=Architects Daughter;fontSource=https%3A%2F%2Ffonts.googleapis.com%2Fcss%3Ffamily%3DArchitects%2BDaughter;fontSize=16;endArrow=open;startSize=14;endSize=14;sourcePerimeterSpacing=8;targetPerimeterSpacing=8;curved=1;" edge="1" parent="1">
          <mxGeometry width="120" relative="1" as="geometry">
            <mxPoint x="258" y="270" as="sourcePoint" />
            <mxPoint x="318" y="334" as="targetPoint" />
            <Array as="points" />
          </mxGeometry>
        </mxCell>
        <mxCell id="YUmcADP9y2Q4YEyY4KXE-108" value="" style="edgeStyle=none;orthogonalLoop=1;jettySize=auto;html=1;rounded=0;sketch=1;hachureGap=4;fontFamily=Architects Daughter;fontSource=https%3A%2F%2Ffonts.googleapis.com%2Fcss%3Ffamily%3DArchitects%2BDaughter;fontSize=16;endArrow=open;startSize=14;endSize=14;sourcePerimeterSpacing=8;targetPerimeterSpacing=8;curved=1;" edge="1" parent="1">
          <mxGeometry width="120" relative="1" as="geometry">
            <mxPoint x="260" y="173.5" as="sourcePoint" />
            <mxPoint x="333" y="174" as="targetPoint" />
            <Array as="points" />
          </mxGeometry>
        </mxCell>
        <mxCell id="YUmcADP9y2Q4YEyY4KXE-109" value="1" style="text;strokeColor=none;fillColor=none;html=1;align=center;verticalAlign=middle;whiteSpace=wrap;rounded=0;sketch=1;hachureGap=4;fontFamily=Architects Daughter;fontSource=https%3A%2F%2Ffonts.googleapis.com%2Fcss%3Ffamily%3DArchitects%2BDaughter;fontSize=20;" vertex="1" parent="1">
          <mxGeometry x="155" y="262" width="22" height="26" as="geometry" />
        </mxCell>
        <mxCell id="YUmcADP9y2Q4YEyY4KXE-110" value="1" style="text;strokeColor=none;fillColor=none;html=1;align=center;verticalAlign=middle;whiteSpace=wrap;rounded=0;sketch=1;hachureGap=4;fontFamily=Architects Daughter;fontSource=https%3A%2F%2Ffonts.googleapis.com%2Fcss%3Ffamily%3DArchitects%2BDaughter;fontSize=20;" vertex="1" parent="1">
          <mxGeometry x="167.5" y="309" width="22" height="26" as="geometry" />
        </mxCell>
        <mxCell id="YUmcADP9y2Q4YEyY4KXE-111" value="1" style="text;strokeColor=none;fillColor=none;html=1;align=center;verticalAlign=middle;whiteSpace=wrap;rounded=0;sketch=1;hachureGap=4;fontFamily=Architects Daughter;fontSource=https%3A%2F%2Ffonts.googleapis.com%2Fcss%3Ffamily%3DArchitects%2BDaughter;fontSize=20;" vertex="1" parent="1">
          <mxGeometry x="264" y="241" width="22" height="26" as="geometry" />
        </mxCell>
        <mxCell id="YUmcADP9y2Q4YEyY4KXE-112" value="1" style="text;strokeColor=none;fillColor=none;html=1;align=center;verticalAlign=middle;whiteSpace=wrap;rounded=0;sketch=1;hachureGap=4;fontFamily=Architects Daughter;fontSource=https%3A%2F%2Ffonts.googleapis.com%2Fcss%3Ffamily%3DArchitects%2BDaughter;fontSize=20;" vertex="1" parent="1">
          <mxGeometry x="321" y="307" width="22" height="26" as="geometry" />
        </mxCell>
        <mxCell id="YUmcADP9y2Q4YEyY4KXE-113" value="1" style="text;strokeColor=none;fillColor=none;html=1;align=center;verticalAlign=middle;whiteSpace=wrap;rounded=0;sketch=1;hachureGap=4;fontFamily=Architects Daughter;fontSource=https%3A%2F%2Ffonts.googleapis.com%2Fcss%3Ffamily%3DArchitects%2BDaughter;fontSize=20;" vertex="1" parent="1">
          <mxGeometry x="260" y="143.5" width="22" height="26" as="geometry" />
        </mxCell>
        <mxCell id="YUmcADP9y2Q4YEyY4KXE-114" value="M" style="text;strokeColor=none;fillColor=none;html=1;align=center;verticalAlign=middle;whiteSpace=wrap;rounded=0;sketch=1;hachureGap=4;fontFamily=Architects Daughter;fontSource=https%3A%2F%2Ffonts.googleapis.com%2Fcss%3Ffamily%3DArchitects%2BDaughter;fontSize=20;" vertex="1" parent="1">
          <mxGeometry x="296" y="134" width="33" height="30" as="geometry" />
        </mxCell>
      </root>
    </mxGraphModel>
  </diagram>
</mxfile>
